<?xml version="1.0" standalone="no"?>
<!DOCTYPE svg PUBLIC "-//W3C//DTD SVG 20010904//EN"
 "http://www.w3.org/TR/2001/REC-SVG-20010904/DTD/svg10.dtd">
<svg version="1.0" xmlns="http://www.w3.org/2000/svg"
 width="481.000000pt" height="456.000000pt" viewBox="0 0 481.000000 456.000000"
 preserveAspectRatio="xMidYMid meet">

<g transform="translate(0.000000,456.000000) scale(0.100000,-0.100000)"
fill="#000000" stroke="none">
<path d="M2122 4324 c-903 -140 -1604 -844 -1736 -1745 -20 -136 -21 -412 -1
-561 36 -272 135 -559 270 -783 167 -278 438 -550 705 -709 654 -389 1457
-392 2109 -9 666 393 1061 1142 1003 1904 -26 345 -116 635 -285 921 -148 251
-376 490 -624 656 -250 168 -546 281 -851 327 -126 19 -462 18 -590 -1z m488
-114 c671 -70 1241 -464 1544 -1068 201 -402 253 -890 141 -1334 -90 -352
-270 -658 -543 -919 -242 -232 -530 -392 -857 -474 -172 -43 -273 -55 -475
-55 -197 0 -293 11 -459 51 -155 38 -256 75 -396 146 -471 237 -811 628 -975
1123 -201 601 -94 1258 285 1765 126 169 346 371 526 482 355 221 800 325
1209 283z"/>
<path d="M1465 2850 c-26 -29 -7 -70 33 -70 49 0 69 42 36 74 -21 22 -47 20
-69 -4z"/>
<path d="M3060 2409 c0 -368 2 -440 13 -430 8 6 19 30 27 53 7 24 25 68 40 98
40 79 94 205 120 278 23 68 23 75 -5 212 -27 137 -8 172 112 210 l58 18 -182
1 -183 1 0 -441z"/>
<path d="M3460 2835 c-14 -7 -52 -21 -85 -30 -96 -26 -100 -32 -98 -128 0 -45
7 -95 14 -112 17 -43 19 -106 4 -135 -16 -32 -35 -92 -35 -112 0 -9 -6 -21
-14 -27 -7 -6 -21 -33 -31 -59 -21 -58 -46 -112 -61 -132 -7 -8 -17 -35 -24
-60 -6 -25 -25 -65 -41 -89 -16 -25 -29 -48 -29 -53 0 -26 42 3 120 84 l88 92
-24 31 c-13 18 -24 43 -24 56 0 28 78 224 87 216 1 -2 -2 -19 -7 -38 -14 -49
-12 -99 4 -105 25 -10 53 14 127 104 109 131 102 128 94 50 -3 -37 -4 -72 0
-78 4 -6 27 7 58 33 78 64 116 91 177 123 47 25 66 29 137 29 l82 0 -30 55
c-16 30 -69 109 -118 175 l-88 120 -129 2 c-96 2 -135 -1 -154 -12z m310 -88
c0 -7 -15 -20 -32 -29 -53 -25 -121 -91 -229 -221 -128 -154 -147 -172 -165
-156 -8 6 -14 20 -14 30 0 11 -5 19 -11 19 -6 0 -2 16 10 36 12 19 21 44 21
55 0 11 8 22 18 26 69 23 130 62 212 137 95 85 139 115 173 116 9 0 17 -6 17
-13z"/>
<path d="M3780 2844 c0 -4 29 -45 64 -93 62 -83 118 -168 163 -247 l22 -39 1
193 0 192 -125 0 c-69 0 -125 -3 -125 -6z"/>
<path d="M1033 2730 c-27 -16 -33 -17 -33 -5 0 11 -11 15 -40 15 l-40 0 0
-165 0 -165 40 0 40 0 0 113 c0 127 11 157 59 157 46 0 51 -14 51 -147 l0
-123 39 0 39 0 3 118 c4 134 12 152 65 152 46 0 54 -23 54 -161 l0 -109 41 0
41 0 -4 134 c-3 118 -6 138 -24 163 -36 48 -121 56 -163 14 -17 -17 -19 -17
-45 6 -34 29 -80 30 -123 3z"/>
<path d="M1723 2731 c-27 -17 -33 -18 -33 -6 0 11 -11 15 -40 15 l-40 0 0
-165 0 -165 40 0 40 0 0 105 c0 135 13 165 70 165 54 0 60 -16 60 -154 l0
-116 41 0 41 0 -4 140 c-3 135 -4 140 -29 166 -36 36 -102 43 -146 15z"/>
<path d="M2083 2731 c-27 -17 -33 -18 -33 -6 0 11 -11 15 -40 15 l-40 0 0
-165 0 -165 40 0 40 0 0 105 c0 135 13 165 70 165 54 0 60 -16 60 -154 l0
-116 41 0 41 0 -4 140 c-3 135 -4 140 -29 166 -36 36 -102 43 -146 15z"/>
<path d="M1460 2575 l0 -165 40 0 40 0 0 165 0 165 -40 0 -40 0 0 -165z"/>
<path d="M3903 2390 c-23 -5 -66 -21 -95 -35 -52 -26 -82 -47 -270 -191 -51
-39 -149 -110 -217 -159 -68 -48 -131 -93 -138 -101 -12 -12 13 -14 182 -14
l196 0 78 78 c83 81 106 102 116 102 6 0 85 56 115 82 8 7 17 12 20 12 6 -2
68 40 111 74 26 22 29 29 29 87 0 57 -2 63 -22 69 -28 7 -51 6 -105 -4z"/>
<path d="M2050 2110 l0 -230 35 0 35 0 0 75 c0 41 4 75 9 75 4 0 36 -34 70
-75 62 -75 62 -75 112 -75 l50 0 -80 93 -80 92 72 73 71 72 -49 0 c-47 0 -52
-3 -112 -62 l-63 -62 0 127 0 127 -35 0 -35 0 0 -230z"/>
<path d="M2780 2275 c0 -63 -1 -65 -25 -65 -21 0 -25 -5 -25 -30 0 -25 4 -30
24 -30 24 0 24 -1 28 -116 3 -108 5 -117 27 -135 16 -13 39 -19 73 -19 l49 0
-3 32 c-3 28 -8 34 -33 38 l-30 5 0 95 0 95 33 3 c28 3 32 7 32 33 0 27 -3 29
-35 29 l-35 0 0 65 0 65 -40 0 -40 0 0 -65z"/>
<path d="M4016 2222 c-3 -4 -67 -51 -143 -103 -76 -51 -169 -124 -208 -161
l-70 -67 218 -1 217 0 0 170 c0 94 -2 170 -4 170 -3 0 -7 -4 -10 -8z"/>
<path d="M1033 2200 c-27 -16 -33 -17 -33 -5 0 11 -11 15 -40 15 l-40 0 0
-165 0 -165 40 0 40 0 0 113 c0 127 11 157 59 157 46 0 51 -14 51 -147 l0
-123 39 0 39 0 3 118 c4 133 12 152 64 152 45 0 55 -29 55 -160 l0 -110 40 0
40 0 0 113 c0 171 -19 213 -99 224 -30 4 -49 0 -76 -16 l-37 -21 -25 20 c-33
25 -79 25 -120 0z"/>
<path d="M1533 2206 c-28 -13 -73 -67 -73 -88 0 -5 18 -8 40 -8 28 0 42 5 49
19 23 43 111 28 111 -18 0 -15 -12 -21 -67 -31 -76 -13 -118 -32 -133 -59 -18
-35 -12 -88 14 -118 22 -25 31 -28 84 -28 45 0 65 5 81 19 19 17 21 17 21 3 0
-13 10 -17 41 -17 l41 0 -4 135 -3 135 -32 31 c-26 27 -41 33 -85 36 -32 2
-66 -2 -85 -11z m127 -206 c-12 -41 -16 -46 -50 -60 -41 -17 -80 -1 -80 34 0
28 48 51 117 55 19 1 21 -2 13 -29z"/>
<path d="M1940 2213 c-8 -3 -23 -12 -32 -21 -16 -14 -18 -13 -18 1 0 13 -9 17
-40 17 l-40 0 0 -165 0 -165 39 0 39 0 4 111 c3 102 5 112 27 130 13 10 34 19
47 19 21 0 24 4 24 40 0 41 -10 48 -50 33z"/>
<path d="M2465 2206 c-62 -28 -95 -85 -95 -162 0 -122 104 -200 220 -165 39
12 100 70 100 96 0 26 -65 19 -94 -10 -16 -16 -36 -25 -55 -25 -34 0 -76 33
-86 68 -6 22 -6 22 121 22 l127 0 -6 46 c-5 49 -27 85 -70 118 -33 25 -121 32
-162 12z m101 -56 c26 -10 53 -36 54 -52 0 -5 -39 -8 -86 -8 l-86 0 14 23 c14
20 53 46 70 47 4 0 19 -5 34 -10z"/>
<path d="M920 1751 l0 -44 1313 7 c721 4 1324 6 1340 6 18 0 27 5 27 15 0 8 8
15 18 15 14 0 15 2 2 10 -10 6 4 10 45 12 177 9 -570 19 -1588 21 l-1157 2 0
-44z"/>
</g>
</svg>
